<?xml version="1.0" encoding="UTF-8" standalone="no"?>
<svg id="svg2" xmlns="http://www.w3.org/2000/svg" height="3840pt" width="2032pt" version="1.1" viewBox="0 0 2032 3840">
  <!-- Lighter version for navbar contrast -->
  <path id="rect4228" d="m1277.8 1.2953c-20.093-0.069793-40.206 0.80688-60.264 2.6641-33.39-0.33-66.52 6.1609-98.23 16.361-82.2 28.05-155.15 77.529-222.1 131.91-21.3 16.6-40.02 36.39-62.35 51.62-65.74 38.8-131.55 79.029-187.22 131.81-68.19 62.28-119.59 143.63-141.1 233.88-4.1 18.78-11.671 37.85-9.5609 57.33 2.65 8.86 12.19-0.67907 15.77-4.1391 46.34-53.42 79.98-116.8 128.57-168.42 15.86-14.94 34.26-26.85 52.75-38.25 72.06-43.23 149.16-79.13 230.18-101.83 59.32-17.34 120.76-1.7103 180.83 1.4297 44.52 25.63 92.691 68.839 86.161 125.49-53.39 13.73-106.41 30.031-156.25 53.841-69.44 33.05-135.31 85.031-163.01 159.04-4.57 0.4-9.079 1.4497-13.389 2.9797-54.15 9.51-106.65 35.659-143.55 77.009-60.99 67.18-74.93 167.71-47.72 252.52-0.16 11.91-5.3206 23.461-6.0406 35.441-11.51 59.35-21.619 119.03-30.709 178.81-14.37 99.37-31.29 199.74-24.85 300.45-35.96 37.6-62.02 83.011-87.38 128.09-48.67 89.49-99.431 177.95-156.21 262.6-22.94 33.77-35.39 73.629-59.97 106.47-22.51-2.48-45.009-5.3891-67.319-9.3391 0.58-479.75-0.3612-959.54 0.4688-1439.3 10.13-14.9 22.46-29.391 25.75-47.731 17.03-65.42 51.251-124.38 76.211-186.79 7.9-19.73 15.09-42.78 5.7297-63.23-1.215-3.16-3.795-4.5581-6.5687-4.6344-2.7738-0.0762-5.7413 1.1688-7.7313 3.2938-16.54 16.91-23.58 40.07-32.62 61.38-20.01 48.04-54.049 88.14-89.709 125.3-9.34 11.48-24.61 24.771-19.87 41.161 3.63 12.44-1.0794 25.24-6.6094 36.35-22.92 41.16-57.301 75.44-76.111 119-2.96 6.31 0.4597 14.249 8.0797 12.839 41.28-7.75 71.53-43.849 100.07-69.289 0.22 469.21-0.09 938.48 0.15 1407.7-16.73-3.77-33.09-9.6603-48.9-16.47-1.7142-0.1346-3.4215-0.191-5.1235-0.1797-34.607 0.2296-66.811 28.871-101.89 15.48-15.75-9.69-41.711-13.479-52.541 4.8109-5.12 9.7 3.6497 19.899 12.48 23.219 31.67 13.13 65.951 17.89 98.881 26.65-32.23 11.33-64.591 23.92-92.831 43.47-13.89 8.88-20.89 31.07-8 43.77 11.87 12.1 29.671 9.7106 44.931 9.5406 23.3 35.33 46.509 71.04 74.719 102.75 10.26 10.16 20.001 22.66 34.541 26.65 16.82 1.66 30.83-9.6709 42.83-19.911 1.93 405.46 0.2406 811.08 0.8406 1216.6-34.36 4.35-67.25 22.939-86.02 52.459-20.89 31.09-25.2 72.489-11.18 107.21 9.52 26.25 31.73 44.761 45.18 68.791 14.26 24.36 31.42 52.24 23.87 81.58-3.05 10.96-20.901 4.65-21.891 16.7-2.5 10.09 9.1697 16.881 17.78 12.761 22.57-3.89 32.731-30.891 28.731-51.381-5.68-41.01-30.401-76.079-54.941-108.21-15.69-18.13-25.589-42.051-23.609-66.291-0.12-41.68 32.119-80.01 72.639-88.55 43.84-11.31 93.02 14.73 108.68 57.12 13.52 32.06 5.9103 70.79-16.63 96.9-25.55 32.92-50.87 69.411-56.28 111.81-1.46 19.91 6.7003 44.389 28.87 48.669 8.78 4.05 20.99-3.1588 18.2-13.369-1.84-8.94-12.94-8.19-19.32-11.6-9.28-13.95-3.86-31.681 0.8-46.261 12.09-31.44 32.65-58.509 53.02-84.959 30.66-42.33 26.78-105-8.2297-143.61-19.38-22.27-47.341-36.499-76.641-39.639-0.03-413.83-0.1906-827.67 0.08-1241.5 0.25-0.29 0.7406-0.8797 0.9906-1.1797 68.12-22.59 134.12-68.821 161.95-137.09 3.68 1.21 6.5194-0.6794 8.3094-3.5594 28.28-37.75 57.02-75.231 84.73-113.36 92.5-122.83 183.82-246.83 271.89-372.98 24.4-39.08 56.969-75.219 67.909-121.11 20.29-80.77 30.901-163.54 42.141-245.94 6.46-50.66 12.82-101.35 18.12-152.15 11.38 31.27 24.55 61.84 37.55 92.48 29.04 69.43 43.379 143.81 55.209 217.8 13.18 86.22 24.12 172.92 30.92 259.85l0.1906 0.8406c-9.44 51.19-16.251 102.82-23.981 154.29-31.73 224.84-61.61 449.96-90.83 675.14-2.54 8.12 7.981 6.6503 12.861 8.7703-10.74 56.01-22.81 112.11-25.97 169.21 0.6 16.63-0.36096 35.46 10.139 49.58 9.81 11.62 10.261 27.48 13.361 41.65 8.89 71.5 7.3497 143.69 7.4297 215.6-2.91 136.75-10.52 273.49-25.53 409.49-7.88 64.9-15.921 130.05-32.541 193.41-0.75 4.95-5.6594 7.0909-9.1594 9.9609-54.1 40.25-106.73 83.36-165.9 116.07-59.82 23.38-119.86 58.149-186.2 52.619-18.82 2.95-23.781 27.901-12.411 41.181 19.76 24.92 54.18 29.629 83.97 31.969 114.5 5.29 229.3 12.451 343.85 5.4406 43.46-8.95 89.91 6.5806 131.82-11.209 25.72-10.88 36.43-40.011 37.08-66.041 1.42-65.77-24.28-128.18-52.8-186.15 53.88-186.09 100.35-374.84 127.71-566.81 13.28-101.25 23.13-204.27 9.1797-305.97 6.04-61.83 18.919-122.75 28.889-183.97 28.99-0.93 58.041-1.3303 87.011-3.1203 22.69 69.05 43.51 138.91 70.67 206.43 7.79 19.38 16.749 38.6 30.419 54.6 19.63 36.27 32.51 75.68 46.72 114.27 59.88 175.17 110.88 353.48 151.99 534 12.29 57.42 24.7 115.13 28.97 173.82 0.56 2.51-2.2203 3.8303-3.8703 5.1703-57 38.32-112.34 80.079-174.04 110.71-50.1 18.69-100.17 40.15-153.7 46.38-15 3.42-31.219-7.2294-45.089 1.8406-13.96 9-12.5 29.831-2.35 41.191 17.94 20.18 45.629 26.669 71.219 30.759 74.91 7.81 149.97 14.18 225.15 18.85 49.37 1.62 98.921 6.9703 148.18 1.2703 37.97-0.53 78.459 10.909 114.62-5.2406 33.28-16.15 39.82-59.21 34.42-92.28-10.46-73.24-41.18-141.68-73.3-207.64 0.13-195.49-7.9797-392.15-40.68-585.36-11.32-65.41-25.87-130.48-47.77-193.22-16.44-46.81-37.11-92.89-68.25-131.87 4.78-48.18-1.5091-96.499-5.3891-144.52 3.77-0.1 7.3888-0.8212 11.169-1.2312 3.19 0.47 8.9312-0.69 5.7312-5.75-2.56-26.15-6.4003-52.129-9.6203-78.189 39.36-6.03 71.299-34.15 101.16-58.55-0.96 5.54-2.1591 11.05-3.3891 16.57-26.43 23.55-34.731 61.979-24.661 95.319-3.25 13.96-7.2891 37.121 12.211 39.461 12.55 34.98 31.719 68.83 59.709 93.83-22.08 1.96-44.419 4.3003-66.609 3.0703-13.91-2.29-27.681-17.181-42.161-11.961-1.17 16.68-1.1591 34.041 0.9609 50.791 0.12 5.14 5.9697 8.85 10.73 6.5 34.86-14.25 73.709-12.04 110.69-13.87-5.01 69.47-3.5894 140.52-15.059 208.85 12.84 12.58 34.419 2.4197 50.259 5.1297 12.82-1.07 40.92 3.6712 39.87-17.019-13.2-65.07-17.909-131.63-24.139-197.65 33.61 1.67 67.509 2.2397 100.74 8.0797 9.01 1.68 17.451 9.71 27.041 5.5 6.94-13.64 1.4697-30.01 3.7797-44.55 0.03-4.11 2.0903-11.931-3.8297-13.141-17.64 0.14-31.46 15.97-49.45 13.87-18.12-0.56-36.191-2.07-54.241-3.5 28.9-26.16 47.821-61.38 61.261-97.52 9.1-27.28 19.669-57.68 11.939-86.12 9.01-48.21 16.101-97.27 14.461-146.4-0.16-23.55-11.45-44.93-9.7-68.63-0.72-48.56-1.6209-98.159-4.0109-146.06 1.19-22.58-1.5891-45.1-0.8391-67.68-9.15-256.32-8.3606-515.47-16.891-770.18-1.68-61.68-3.5403-123.56-7.7703-185.05 1.83-7.82 0.3103-16.129 0.7703-24.069 49.6 0.24 99.239 0.0994 148.86 0.0594 2.37-194.69-28.579-394.06-118.07-568.79-46.5-90.75-108.6-174.11-185.6-241.25-122.4-108.61-284.8-171.99-448.4-172.55z" fill="#fff6e0"/>
  <!-- All other paths: use lighter shades for orange, gold, and brown -->
  <g id="g4196" transform="translate(-3200)">
    <path id="path4" d="..." fill="#fff6e0"/>
    <path id="path6" d="..." fill="#ffe9b3"/>
    <path id="path22" d="..." fill="#ffe0a3"/>
    <path id="path32" d="..." fill="#fff2c6"/>
    <path id="path36" d="..." fill="#e6e6e6"/>
  </g>
</svg>
